<?xml version="1.0" encoding="utf-8"?>
<!-- Generator: Adobe Illustrator 24.1.0, SVG Export Plug-In . SVG Version: 6.00 Build 0)  -->
<svg version="1.1" id="Capa_1" xmlns="http://www.w3.org/2000/svg" xmlns:xlink="http://www.w3.org/1999/xlink" x="0px" y="0px"
	 viewBox="0 0 119 60.5" style="enable-background:new 0 0 119 60.5;" xml:space="preserve">
<style type="text/css">
	.st0{fill:#191A1B;}
	.st1{fill:#DD0C15;}
</style>
<g>
	<g>
		<g>
			<path class="st0" d="M24.54,29.43c0-0.92-0.38-1.72-1.15-2.41c-0.76-0.69-2.1-1.4-4.02-2.11c-2.04-0.75-3.49-1.62-4.37-2.6
				c-0.86-0.94-1.28-2.22-1.28-3.85c0-1.65,0.6-2.97,1.79-3.97s2.86-1.55,5-1.65c0.65-0.04,1.35-0.03,2.11,0.03
				c1.38,0.1,2.69,0.36,3.91,0.76v4.95H26.5c-0.77-2.61-2.43-3.91-4.98-3.91c-1.45,0-2.57,0.27-3.38,0.79
				c-0.81,0.53-1.21,1.23-1.21,2.11c0,0.84,0.33,1.55,0.98,2.14c0.61,0.55,1.8,1.18,3.58,1.89c2.53,1,4.29,2.03,5.29,3.09
				c1.02,1.06,1.53,2.31,1.53,3.76c0,2.14-0.78,3.76-2.35,4.86c-1.57,1.08-3.56,1.62-5.99,1.62c-1.12,0-2.21-0.11-3.27-0.34
				c-1.06-0.22-1.83-0.48-2.32-0.76v-1.86c1.67,0.71,3.44,1.07,5.32,1.07c1.43,0,2.59-0.33,3.5-0.98
				C24.09,31.41,24.54,30.53,24.54,29.43z"/>
			<path class="st0" d="M33.83,26.01v-7.3c0-1.77-0.19-3.04-0.58-3.79c-0.37-0.75-1.06-1.33-2.08-1.74v-0.03h6.51v13.11
				c0,2.18,0.41,3.86,1.24,5.03s1.96,1.76,3.41,1.76c1.55,0,2.76-0.6,3.64-1.8s1.31-2.94,1.31-5.23V13.15h2.87V25.8
				c0,2.93-0.71,5.19-2.12,6.77c-1.42,1.58-3.34,2.37-5.76,2.37c-2.65,0-4.72-0.76-6.2-2.29C34.58,31.11,33.83,28.9,33.83,26.01z"/>
			<path class="st0" d="M67.6,29.43c0-0.92-0.38-1.72-1.15-2.41s-2.1-1.4-4.02-2.11c-2.04-0.75-3.49-1.62-4.37-2.6
				c-0.86-0.94-1.28-2.22-1.28-3.85c0-1.65,0.6-2.97,1.79-3.97s2.86-1.55,5-1.65c0.65-0.04,1.35-0.03,2.11,0.03
				c1.39,0.1,2.69,0.36,3.91,0.76v4.95h-0.03c-0.77-2.61-2.43-3.91-4.98-3.91c-1.45,0-2.57,0.27-3.38,0.79
				c-0.8,0.53-1.21,1.23-1.21,2.11c0,0.84,0.33,1.55,0.98,2.14c0.61,0.55,1.8,1.18,3.58,1.89c2.53,1,4.29,2.03,5.29,3.09
				c1.02,1.06,1.53,2.31,1.53,3.76c0,2.14-0.78,3.76-2.35,4.86c-1.57,1.08-3.57,1.62-5.99,1.62c-1.12,0-2.21-0.11-3.27-0.34
				c-1.06-0.22-1.83-0.48-2.32-0.76v-1.86c1.67,0.71,3.44,1.07,5.32,1.07c1.43,0,2.59-0.33,3.5-0.98
				C67.14,31.41,67.6,30.53,67.6,29.43z"/>
			<path class="st0" d="M93.3,34.54h-3.85V24.15h-8.16v10.39h-3.85V18.71c0-1.77-0.19-3.04-0.58-3.79
				c-0.37-0.75-1.06-1.33-2.08-1.74v-0.03h6.51v9.01h8.16v-9.01h3.85C93.3,13.15,93.3,34.54,93.3,34.54z"/>
			<path class="st0" d="M105.27,34.54h-3.85V18.71c0-1.77-0.19-3.04-0.58-3.79c-0.37-0.75-1.06-1.33-2.08-1.74v-0.03h6.51V34.54z"/>
		</g>
	</g>
</g>
<g>
	<path class="st1" d="M28.75,47.43h-1.77V42c0-0.61-0.05-1.04-0.16-1.27c-0.1-0.24-0.31-0.42-0.63-0.53v-0.01h2.42
		c1.8,0,2.7,0.58,2.7,1.74c0,0.38-0.14,0.7-0.41,0.96c-0.28,0.26-0.65,0.43-1.11,0.5c0.59,0.01,1.06,0.19,1.42,0.52
		s0.54,0.77,0.54,1.32c0,0.61-0.2,1.1-0.6,1.47c-0.4,0.37-0.94,0.6-1.63,0.69C29.22,47.42,28.96,47.43,28.75,47.43z M28.08,40.76
		v2.5h0.46c1.09,0,1.64-0.44,1.64-1.33c0-0.43-0.12-0.75-0.35-0.95c-0.23-0.21-0.6-0.31-1.09-0.31c-0.07,0-0.16,0.01-0.26,0.02
		s-0.2,0.03-0.27,0.04C28.13,40.75,28.09,40.76,28.08,40.76z M28.93,46.92c0.54,0,0.95-0.15,1.25-0.43
		c0.29-0.29,0.44-0.71,0.44-1.25c0-0.48-0.17-0.85-0.51-1.11s-0.82-0.39-1.44-0.39h-0.59v3.09C28.41,46.88,28.69,46.92,28.93,46.92z
		"/>
	<path class="st1" d="M36.06,47.56c-0.7,0-1.29-0.19-1.78-0.56c-0.93-0.72-1.4-1.86-1.4-3.42c0-0.95,0.26-1.76,0.78-2.42
		c0.26-0.34,0.6-0.6,1.02-0.8s0.88-0.29,1.39-0.29c1.02,0,1.8,0.34,2.34,1.03c0.55,0.69,0.83,1.52,0.83,2.49
		c0,1.13-0.27,2.08-0.82,2.84C37.86,47.18,37.08,47.56,36.06,47.56z M38.02,43.59c0-0.96-0.17-1.7-0.52-2.23
		c-0.35-0.52-0.83-0.79-1.44-0.79c-0.61,0-1.1,0.26-1.44,0.79c-0.35,0.52-0.52,1.27-0.52,2.23c0,1.03,0.18,1.86,0.53,2.51
		c0.35,0.64,0.83,0.95,1.44,0.95s1.08-0.32,1.43-0.95C37.84,45.46,38.02,44.62,38.02,43.59z"/>
	<path class="st1" d="M42.52,47.43h-1.77V42c0-0.61-0.05-1.04-0.16-1.27c-0.1-0.24-0.31-0.42-0.63-0.53v-0.01h2.42
		c1.8,0,2.7,0.58,2.7,1.74c0,0.38-0.14,0.7-0.41,0.96c-0.28,0.26-0.65,0.43-1.11,0.5c0.59,0.01,1.06,0.19,1.42,0.52
		c0.36,0.33,0.54,0.77,0.54,1.32c0,0.61-0.2,1.1-0.6,1.47c-0.4,0.37-0.94,0.6-1.63,0.69C43,47.42,42.73,47.43,42.52,47.43z
		 M41.86,40.76v2.5h0.46c1.09,0,1.64-0.44,1.64-1.33c0-0.43-0.12-0.75-0.35-0.95c-0.23-0.21-0.6-0.31-1.09-0.31
		c-0.07,0-0.16,0.01-0.26,0.02s-0.2,0.03-0.27,0.04C41.9,40.75,41.86,40.76,41.86,40.76z M42.71,46.92c0.54,0,0.95-0.15,1.25-0.43
		c0.29-0.29,0.44-0.71,0.44-1.25c0-0.48-0.17-0.85-0.51-1.11s-0.82-0.39-1.44-0.39h-0.59v3.09C42.18,46.88,42.47,46.92,42.71,46.92z
		"/>
	<path class="st1" d="M50.47,43.29h2.24v0.56h-2.24v3.06h1.43c0.56,0,0.96-0.07,1.2-0.21c0.23-0.13,0.4-0.39,0.51-0.77h0.01
		l-0.01,1.5h-4.25V42c0-0.59-0.06-1-0.19-1.25c-0.12-0.26-0.35-0.44-0.68-0.55v-0.01h4.94v1.67h-0.02c-0.08-0.4-0.23-0.69-0.45-0.87
		c-0.21-0.18-0.52-0.27-0.92-0.27h-1.57V43.29z"/>
	<path class="st1" d="M59.22,46.68v0.76h-3.93V42c0-0.59-0.06-1-0.19-1.25c-0.12-0.26-0.35-0.44-0.68-0.55v-0.01h1.98v6.64
		c0.28,0.06,0.53,0.08,0.74,0.08h0.12h0.19c0.6,0,1.02-0.09,1.25-0.26c0.24-0.18,0.42-0.42,0.52-0.71h0.01
		C59.23,46.21,59.22,46.46,59.22,46.68z"/>
	<path class="st1" d="M64.29,47.43h-1.11V42c0-0.59-0.06-1-0.19-1.25c-0.12-0.26-0.35-0.44-0.68-0.55v-0.01h2.62
		c1.92,0,2.88,0.7,2.88,2.09c0,0.72-0.27,1.31-0.82,1.76c-0.55,0.45-1.27,0.67-2.17,0.67h-0.54v2.72H64.29z M64.95,40.69l-0.66,0.06
		v3.36c0.21,0.06,0.43,0.09,0.64,0.09c0.53,0,0.95-0.16,1.27-0.49c0.31-0.33,0.47-0.78,0.47-1.34
		C66.67,41.25,66.1,40.69,64.95,40.69z"/>
	<path class="st1" d="M72.1,47.56c-0.7,0-1.29-0.19-1.78-0.56c-0.93-0.72-1.4-1.86-1.4-3.42c0-0.95,0.26-1.76,0.78-2.42
		c0.26-0.34,0.6-0.6,1.01-0.8c0.42-0.19,0.88-0.29,1.39-0.29c1.01,0,1.79,0.34,2.34,1.03c0.55,0.69,0.83,1.52,0.83,2.49
		c0,1.13-0.27,2.08-0.82,2.84C73.9,47.18,73.12,47.56,72.1,47.56z M74.06,43.59c0-0.96-0.17-1.7-0.52-2.23
		c-0.35-0.52-0.83-0.79-1.44-0.79c-0.62,0-1.1,0.26-1.45,0.79c-0.35,0.52-0.52,1.27-0.52,2.23c0,1.03,0.18,1.86,0.53,2.51
		c0.35,0.64,0.83,0.95,1.44,0.95s1.08-0.32,1.43-0.95C73.88,45.46,74.06,44.62,74.06,43.59z"/>
	<path class="st1" d="M77.73,47.43h-0.69V42c0-0.59-0.06-1-0.19-1.25c-0.12-0.26-0.35-0.44-0.68-0.55v-0.01h2.07l3.6,5.73h0.01
		v-5.73h0.68v7.25h-0.98l-3.81-6.02h-0.01C77.73,41.42,77.73,47.43,77.73,47.43z"/>
	<path class="st1" d="M83.75,40.18h1.98v6.37c0,0.57-0.14,1.08-0.41,1.55c-0.27,0.47-0.7,0.93-1.28,1.39l-0.22-0.23
		c0.3-0.33,0.5-0.68,0.62-1.04s0.18-0.81,0.18-1.37V42c0-0.59-0.06-1-0.19-1.25c-0.12-0.26-0.35-0.44-0.68-0.55V40.18z"/>
	<path class="st1" d="M88.28,40.18h1.76l2.65,7.25h-1.21l-0.81-2.25h-2.44l-0.78,2.25h-0.78l1.99-5.58
		c0.14-0.41,0.22-0.72,0.22-0.94c0-0.35-0.2-0.59-0.6-0.71C88.28,40.2,88.28,40.18,88.28,40.18z M90.47,44.63l-1.05-3.11h-0.01
		l-1.01,3.11H90.47z"/>
</g>
</svg>
